<svg xmlns="http://www.w3.org/2000/svg" style="display: none;">
    <symbol id="icon" width="46.000000pt" height="49.000000pt" viewBox="0 0 46.000000 49.000000" preserveAspectRatio="xMidYMid meet">
        <g transform="translate(0.000000,49.000000) scale(0.100000,-0.100000)" fill="#000000" stroke="none">
            <path d="M110 459 c0 -17 -5 -20 -25 -17 -22 5 -24 2 -19 -18 6 -22 3 -24 -26
                -24 -31 0 -32 -1 -17 -18 22 -24 21 -38 0 -46 -14 -6 -14 -9 6 -22 18 -13 20
                -18 9 -31 -10 -12 -9 -17 5 -24 9 -5 14 -16 11 -24 -4 -9 0 -15 9 -15 8 0 17
                -3 20 -7 2 -5 2 -1 -1 7 -6 19 -13 78 -8 65 2 -5 7 -22 10 -37 4 -15 15 -36
                27 -47 l20 -19 -30 -10 c-23 -8 -33 -20 -42 -52 -12 -40 -12 -43 12 -61 15
                -12 34 -18 50 -15 15 3 43 -3 63 -13 29 -15 36 -16 36 -5 0 19 49 18 56 -1 4
                -8 12 -15 20 -15 8 0 14 7 14 15 0 9 9 15 24 15 12 0 37 5 54 11 26 9 30 14
                22 29 -7 13 -3 23 15 40 20 19 25 33 25 76 0 43 -5 57 -29 83 -25 26 -36 31
                -76 31 -39 0 -52 -5 -75 -30 -28 -30 -44 -76 -32 -95 4 -5 5 -19 3 -30 -2 -11
                0 -17 4 -13 4 4 17 -4 29 -17 11 -13 37 -29 56 -34 l35 -11 -37 5 c-30 5 -39
                2 -48 -15 -15 -28 -25 -19 -40 37 -11 44 -23 62 -43 63 -4 0 -1 -13 7 -29 15
                -29 18 -93 3 -84 -4 2 -4 15 -1 27 3 14 -3 40 -15 64 l-20 40 25 16 c13 9 22
                21 19 26 -4 6 -1 10 4 10 6 0 11 6 11 14 0 8 6 17 13 20 10 5 10 7 0 12 -20 9
                -15 22 9 30 20 6 20 8 5 19 -15 10 -15 13 0 27 14 15 13 17 -6 23 -17 5 -19
                10 -11 25 15 27 12 32 -10 20 -18 -10 -21 -7 -26 20 -7 30 -7 30 -32 14 -23
                -15 -26 -15 -34 0 -13 23 -28 20 -28 -5z m28 -122 c3 -12 -3 -17 -21 -17 -31
                0 -40 10 -25 27 15 18 42 12 46 -10z m70 -4 c2 -8 -6 -13 -22 -13 -26 0 -40
                12 -29 24 11 11 46 2 5l1 -11z m132 -132 c0 -28 -28 -47 -48 -34 -25 15 -21 36
                8 44 38 11 40 10 40 -10z m83 2 c13 -8 7 -22 -14 -33 -25 -14 -49 2 -49 31 0
                16 5 18 28 13 15 -4 30 -9 35 -11z"
            />
        </g>
    </symbol>
</svg>
