<svg xmlns="http://www.w3.org/2000/svg" style="display: none;">
    <symbol id="icon" width="46.000000pt" height="49.000000pt" viewBox="0 0 183.000000 200.000000" preserveAspectRatio="xMidYMid meet">
        <g transform="translate(0.000000,200.000000) scale(0.100000,-0.100000)"
           fill="#000000" stroke="none">
            <path d="M455 1853 c-10 -80 -33 -136 -54 -130 -9 3 -44 15 -79 28 -34 12 -65
19 -68 16 -3 -3 3 -33 15 -66 18 -52 27 -110 19 -111 -2 -1 -47 -5 -101 -9
-53 -4 -100 -11 -104 -15 -4 -3 11 -25 34 -49 49 -52 73 -86 73 -107 0 -9 -29
-38 -65 -64 -36 -26 -65 -51 -65 -55 0 -4 18 -13 40 -20 43 -13 110 -65 110
-85 0 -6 -20 -32 -45 -56 -25 -24 -45 -47 -45 -51 0 -4 26 -16 58 -27 62 -20
63 -23 51 -107 -4 -30 -3 -30 51 -35 l55 -5 3 -37 c3 -42 5 -43 32 -28 18 9
17 13 -10 67 -41 82 -60 173 -58 278 l1 90 7 -105 c13 -182 64 -299 151 -346
72 -39 65 -61 -26 -89 -148 -46 -136 -32 -185 -204 l-43 -151 39 -35 c21 -19
69 -55 105 -81 65 -45 67 -45 110 -34 24 7 72 12 105 12 114 -1 183 -32 236
-107 18 -25 35 -45 39 -45 5 0 9 33 11 73 l3 72 74 3 75 3 65 -70 66 -70 42
10 42 11 3 57 3 56 78 3 c45 2 84 -2 92 -8 9 -7 16 -6 25 5 7 9 29 15 54 15
35 0 49 7 89 42 l47 43 -25 53 c-14 30 -25 58 -25 63 0 11 148 159 159 159 4
0 13 12 20 26 9 20 8 32 -4 58 -13 26 -14 42 -5 79 14 63 -1 201 -28 252 -11
22 -41 68 -66 101 -38 51 -57 66 -118 95 -69 32 -79 34 -178 34 -144 -1 -201
-23 -292 -116 -75 -76 -98 -114 -109 -179 -4 -25 -13 -67 -20 -94 -12 -45 -11
-51 11 -93 19 -37 22 -48 12 -64 -21 -33 -15 -96 10 -113 37 -26 51 -21 43 15
-5 21 -4 29 3 25 6 -3 13 -19 17 -35 17 -80 141 -162 281 -186 l79 -13 -55 -1
c-30 0 -80 6 -110 14 -94 25 -93 26 -131 -70 -28 -72 -36 -85 -53 -83 -15 2
-24 16 -34 53 -43 163 -106 367 -116 373 -6 4 -49 18 -96 32 -78 23 -85 28
-88 53 -2 15 1 27 7 27 5 0 33 20 62 45 29 25 61 45 71 45 27 0 33 27 13 50
-21 23 -16 30 28 45 19 6 31 17 29 25 -16 68 -17 65 37 88 28 11 51 25 51 31
0 6 -22 25 -50 43 -54 35 -60 45 -32 55 44 15 153 67 162 78 8 9 -7 20 -60 41
-38 16 -70 32 -70 35 0 4 27 32 60 62 33 31 60 60 60 65 0 10 -21 15 -112 28
-27 3 -48 11 -48 18 0 6 20 45 44 86 51 87 45 95 -45 61 -30 -12 -59 -21 -66
-21 -18 0 -33 66 -33 148 0 39 -2 72 -5 72 -19 0 -78 -41 -128 -89 l-59 -56
-25 30 c-79 97 -105 125 -112 125 -5 0 -12 -26 -16 -57z m78 -454 c22 -24 27
-38 25 -67 l-3 -37 -95 0 -95 0 -3 34 c-4 44 13 76 52 96 42 21 85 12 119 -26z
m237 -24 c31 -16 47 -53 36 -81 -5 -12 -13 -14 -34 -9 -15 4 -56 11 -92 14
-62 6 -65 7 -68 34 -2 16 2 35 9 43 16 19 111 18 149 -1z m529 -469 c21 -25
25 -109 7 -144 -18 -35 -81 -72 -122 -72 -70 0 -137 61 -132 119 l3 36 66 7
c69 6 126 29 136 54 7 18 27 18 42 0z m209 -46 c20 -5 58 -10 85 -10 47 0 47
0 47 -34 0 -69 -84 -127 -162 -112 -20 4 -48 21 -69 42 -28 29 -34 43 -34 77
0 24 8 55 18 70 l18 28 30 -25 c16 -14 46 -30 67 -36z m-698 -274 c68 -138 70
-152 26 -195 -20 -19 -36 -39 -36 -45 0 -6 14 -25 32 -43 17 -18 29 -36 25
-39 -7 -7 -97 62 -97 75 0 4 18 25 40 46 23 22 40 49 40 61 0 26 -44 128 -89
202 -35 60 -40 83 -11 57 11 -10 42 -63 70 -119z"/>
            <path d="M1400 135 c0 -17 5 -25 13 -22 6 2 12 12 12 22 0 10 -6 20 -12 23 -8
2 -13 -6 -13 -23z"/>
        </g>
    </symbol>
</svg>
